#!OML:ASF F:\VICON\USERDATA\INSTALL\rory3\rory3.ASF
:FULLY-SPECIFIED
:DEGREES
196
root 4.51832 17.9587 3.24168 -2.34653 45.708 -0.0292468
lowerback 12.7282 2.19755 0.194629
upperback 1.75891 2.97862 0.101604
thorax -5.27567 1.47619 -0.511262
lowerneck -11.9494 -5.48197 -10.5951
upperneck 39.9982 -6.51517 5.81282
head 17.2476 -3.1958 3.47041
rclavicle -1.00399e-013 9.54166e-015
rhumerus -26.3498 -10.637 -78.1835
rradius 40.2308
rwrist 3.35992
rhand -15.9494 9.0851
rfingers 7.12502
rthumb 10.2489 -20.6452
lclavicle -1.00399e-013 9.54166e-015
lhumerus -33.7367 6.56241 83.1424
lradius 28.4646
lwrist -7.79252
lhand -15.2993 24.2466
lfingers 7.12502
lthumb 10.876 53.9449
rfemur 1.54737 -2.36737 22.0525
rtibia 40.7768
rfoot -8.51723 -4.4225
rtoes -12.6181
lfemur -14.2641 -0.517146 -19.2768
ltibia 14.1651
lfoot 5.02481 -6.04648
ltoes -0.529518
197
root 4.61865 17.9724 3.29289 -2.34847 45.678 0.187301
lowerback 12.8645 2.13236 0.0232908
upperback 1.89007 2.87106 0.114048
thorax -5.22261 1.42796 -0.386098
lowerneck -12.0155 -5.42107 -10.5885
upperneck 40.0579 -6.38099 5.72123
head 17.2761 -3.15234 3.45296
rclavicle 5.02056e-014 -1.39149e-015
rhumerus -26.2949 -10.7547 -78.2236
rradius 40.1451
rwrist 3.20072
rhand -16.3034 9.1068
rfingers 7.12502
rthumb 9.90749 -20.6401
lclavicle 5.02056e-014 -1.39149e-015
lhumerus -33.6848 6.47398 83.344
lradius 28.6377
lwrist -7.0517
lhand -15.9911 24.8585
lfingers 7.12502
lthumb 10.2088 54.5908
rfemur 0.508028 -2.51482 21.5061
rtibia 43.0767
rfoot -6.61252 -3.66813
rtoes -7.85888
lfemur -13.5614 -0.264689 -19.625
ltibia 13.9137
lfoot 4.82956 -6.41352
ltoes -0.315679
198
root 4.71655 17.9893 3.34586 -2.49565 45.5349 0.279283
lowerback 13.0394 2.09652 -0.089305
upperback 2.02806 2.81034 0.124874
thorax -5.1799 1.40144 -0.304779
lowerneck -12.0904 -5.37432 -10.5162
upperneck 40.1268 -6.28095 5.60992
head 17.3118 -3.11581 3.40838
rclavicle 3.48867e-014 9.74045e-015
rhumerus -26.255 -10.7943 -78.3279
rradius 40.0499
rwrist 2.78184
rhand -16.7001 9.33596
rfingers 7.12502
rthumb 9.52466 -20.4288
lclavicle 3.48867e-014 9.74045e-015
lhumerus -33.5846 6.47653 83.3123
lradius 28.6536
lwrist -7.05482
lhand -16.3227 25.5517
lfingers 7.12502
lthumb 9.88882 55.2995
rfemur -0.482804 -2.76463 21.0524
rtibia 45.2876
rfoot -4.25371 -2.95824
rtoes -4.26741
lfemur -12.8659 0.0231767 -19.8467
ltibia 13.7851
lfoot 4.57451 -6.75754
ltoes 0.226436
199
root 4.81518 18.0056 3.40115 -2.60687 45.321 0.30179
lowerback 13.0881 2.08871 -0.140226
upperback 2.13811 2.79403 0.12281
thorax -5.0932 1.39542 -0.274739
lowerneck -12.0976 -5.34587 -10.4243
upperneck 40.1488 -6.20266 5.45163
head 17.3031 -3.09203 3.33308
rclavicle -2.41026e-014 -2.18663e-015
rhumerus -26.2616 -10.9754 -78.4174
rradius 40.0396
rwrist 2.59014
rhand -16.5554 9.22829
rfingers 7.12502
rthumb 9.66428 -20.53
lclavicle -2.41026e-014 -2.18663e-015
lhumerus -33.5392 6.00988 83.4933
lradius 28.8928
lwrist -6.54508
lhand -16.9849 26.9673
lfingers 7.12502
lthumb 9.24996 56.7444
rfemur -1.62276 -3.05177 20.6512
rtibia 47.4087
rfoot -1.62409 -2.0824
rtoes -1.3607
lfemur -12.2489 0.20212 -19.976
ltibia 13.6385
lfoot 4.33307 -6.85302
ltoes -0.368847
200
root 4.91524 18.0208 3.45798 -2.44211 45.039 0.574217
lowerback 13.0111 2.05724 -0.37405
upperback 2.21648 2.72119 0.13025
thorax -4.97953 1.36433 -0.118126
lowerneck -12.1032 -5.24528 -10.6185
upperneck 40.1786 -5.96328 5.38713
head 17.3004 -3.03448 3.38273
rclavicle -1.17382e-013 4.17448e-015
rhumerus -26.259 -10.8647 -78.5085
rradius 40.059
rwrist 2.67346
rhand -16.4393 8.84949
rfingers 7.12502
rthumb 9.77637 -20.9036
lclavicle -1.17382e-013 4.17448e-015
lhumerus -33.6055 5.43796 83.9505
lradius 29.3373
lwrist -5.19443
lhand -17.3901 27.9044
lfingers 7.12502
lthumb 8.85892 57.6984
rfemur -2.90165 -3.26644 20.0562
rtibia 49.427
rfoot 1.01429 -1.00117
rtoes 1.63185
lfemur -11.6872 0.391105 -20.2809
ltibia 13.4629
lfoot 4.00978 -6.77037
ltoes -1.32621
201
root 5.01077 18.0354 3.5154 -2.19128 44.8268 1.01586
lowerback 13.0338 1.93396 -0.749562
upperback 2.2589 2.506 0.121321
thorax -4.96208 1.2646 0.12059
lowerneck -12.0816 -5.03429 -10.8682
upperneck 40.2168 -5.56651 5.38691
head 17.2802 -2.91361 3.50193
rclavicle 9.6423e-014 -2.34566e-014
rhumerus -26.238 -10.3989 -78.6607
rradius 40.012
rwrist 2.76001
rhand -16.2736 8.60901
rfingers 7.12502
rthumb 9.93622 -21.1365
lclavicle 9.6423e-014 -2.34566e-014
lhumerus -33.6872 5.587 83.9688
lradius 29.4793
lwrist -5.01324
lhand -17.1717 27.1441
lfingers 7.12502
lthumb 9.06968 56.9291
rfemur -4.11207 -3.50609 19.3732
rtibia 51.3152
rfoot 3.22596 0.121258
rtoes 3.44825
lfemur -11.0724 0.533776 -20.7148
ltibia 13.2505
lfoot 3.73596 -6.72219
ltoes -0.928839
202
root 5.09887 18.0438 3.57179 -2.04738 44.7323 1.36927
lowerback 13.1921 1.82502 -1.11054
upperback 2.28238 2.30986 0.10673
thorax -5.03587 1.17396 0.337404
lowerneck -12.0477 -4.86611 -10.9006
upperneck 40.2619 -5.27345 5.31369
head 17.2577 -2.81083 3.52936
rclavicle -9.46091e-014 6.55989e-015
rhumerus -26.3175 -10.0484 -78.7827
rradius 40.0264
rwrist 2.86488
rhand -15.8737 8.52259
rfingers 7.12502
rthumb 10.322 -21.2041
lclavicle -9.46091e-014 6.55989e-015
lhumerus -33.7224 5.94407 83.6801
lradius 29.3931
lwrist -5.87229
lhand -17.1475 25.9598
lfingers 7.12502
lthumb 9.09301 55.7438
rfemur -5.21891 -3.85375 18.8172
rtibia 53.0597
rfoot 4.53876 1.00996
rtoes 3.86228
lfemur -10.4 0.512998 -21.0729
ltibia 12.9246
lfoot 3.64335 -6.7019
ltoes -0.37589
203
root 5.18804 18.0522 3.62742 -1.82282 44.62 1.76027
lowerback 13.2596 1.78763 -1.48864
upperback 2.31886 2.20443 0.0552298
thorax -5.04475 1.12802 0.513296
lowerneck -12.1147 -4.79097 -10.8795
upperneck 40.382 -5.13258 5.25283
head 17.3218 -2.76004 3.52748
rclavicle 7.12643e-014 7.95139e-016
rhumerus -26.4899 -9.98919 -78.9093
rradius 40.1312
rwrist 3.15166
rhand -15.5454 8.6959
rfingers 7.12502
rthumb 10.6387 -21.0148
lclavicle 7.12643e-014 7.95139e-016
lhumerus -33.7473 5.7388 83.5839
lradius 29.56
lwrist -6.18259
lhand -17.8321 26.4315
lfingers 7.12502
lthumb 8.4324 56.2432
rfemur -6.31105 -4.19604 18.2614
rtibia 54.6726
rfoot 4.6867 1.30123
rtoes 3.34582
lfemur -9.76964 0.529341 -21.4673
ltibia 12.5509
lfoot 3.49403 -6.60384
ltoes -0.644257
204
root 5.27969 18.0642 3.68279 -1.46926 44.4251 2.26943
lowerback 13.2391 1.78378 -1.91328
upperback 2.36746 2.13731 -0.017486
thorax -4.99312 1.10113 0.689504
lowerneck -12.23 -4.738 -11.1139
upperneck 40.5288 -5.00791 5.35874
head 17.4366 -2.7338 3.64754
rclavicle 3.35449e-014 -2.88238e-015
rhumerus -26.7606 -10.1432 -78.9914
rradius 40.4225
rwrist 3.56583
rhand -15.1723 8.88992
rfingers 7.12502
rthumb 10.9986 -20.8019
lclavicle 3.35449e-014 -2.88238e-015
lhumerus -33.7324 5.28477 83.7147
lradius 29.9629
lwrist -6.05795
lhand -18.2219 27.8474
lfingers 7.12502
lthumb 8.05621 57.6738
rfemur -7.37063 -4.47967 17.6239
rtibia 56.1206
rfoot 3.91704 1.22822
rtoes 1.91535
lfemur -9.23031 0.717382 -21.9708
ltibia 12.2882
lfoot 3.26063 -6.56997
ltoes -1.04405
205
root 5.36734 18.0707 3.73903 -1.12845 44.194 2.70232
lowerback 13.23 1.80278 -2.27449
upperback 2.37272 2.10695 -0.115035
thorax -4.99067 1.09123 0.796312
lowerneck -12.2654 -4.68467 -11.3788
upperneck 40.6503 -4.95044 5.63441
head 17.5319 -2.71795 3.84123
rclavicle 3.4017e-014 1.51076e-014
rhumerus -27.0667 -10.3356 -79.0864
rradius 40.7385
rwrist 3.97464
rhand -14.959 8.967
rfingers 7.12502
rthumb 11.2042 -20.7138
lclavicle 3.4017e-014 1.51076e-014
lhumerus -33.7145 4.40663 83.9591
lradius 30.4398
lwrist -5.45752
lhand -18.2731 28.5078
lfingers 7.12502
lthumb 8.00671 58.3361
rfemur -8.46335 -4.72993 17.1072
rtibia 57.3957
rfoot 2.74862 0.857545
rtoes 0.837272
lfemur -8.78287 0.885806 -22.3901
ltibia 12.1159
lfoot 2.99156 -6.51026
ltoes -1.24432
206
root 5.45016 18.0723 3.79364 -0.910035 43.9504 2.95864
lowerback 13.2656 1.77118 -2.53863
upperback 2.3682 2.02421 -0.165525
thorax -5.01932 1.05457 0.905524
lowerneck -12.3003 -4.58156 -11.4497
upperneck 40.7578 -4.7892 5.69215
head 17.5864 -2.65886 3.91604
rclavicle -8.44338e-014 2.22639e-014
rhumerus -27.1236 -9.91823 -79.2868
rradius 40.7643
rwrist 3.98036
rhand -14.9171 8.80785
rfingers 7.12502
rthumb 11.2447 -20.8708
lclavicle -8.44338e-014 2.22639e-014
lhumerus -33.6494 3.92127 84.041
lradius 30.7193
lwrist -5.18914
lhand -18.4587 28.1481
lfingers 7.12502
lthumb 7.82765 57.9832
rfemur -9.59115 -4.96851 16.7776
rtibia 58.4791
rfoot 1.46641 0.195918
rtoes 1.42983
lfemur -8.38826 1.08927 -22.6546
ltibia 11.9979
lfoot 2.72054 -6.4468
ltoes -0.98468
207
root 5.52808 18.075 3.84644 -0.825165 43.7156 3.07626
lowerback 13.3489 1.73599 -2.71125
upperback 2.41014 1.95175 -0.17046
thorax -5.02361 1.02157 1.0088
lowerneck -12.3759 -4.50459 -11.4667
upperneck 40.7775 -4.62892 5.61468
head 17.5939 -2.60853 3.91187
rclavicle -6.89534e-015 -2.98177e-015
rhumerus -27.0383 -9.47557 -79.4908
rradius 40.6552
rwrist 3.87275
rhand -14.6638 8.81401
rfingers 7.12502
rthumb 11.489 -20.8512
lclavicle -6.89534e-015 -2.98177e-015
lhumerus -33.3514 4.13106 83.8553
lradius 30.5748
lwrist -5.69065
lhand -18.5024 25.6874
lfingers 7.12502
lthumb 7.7854 55.5241
rfemur -10.6896 -5.22028 16.5883
rtibia 59.3642
rfoot 0.237707 -0.395376
rtoes 2.17609
lfemur -8.04354 1.337 -22.8059
ltibia 12.0095
lfoot 2.3681 -6.40813
ltoes -1.05848
208
root 5.60452 18.0786 3.89897 -0.671497 43.6189 3.37466
lowerback 13.51 1.6933 -2.97362
upperback 2.4583 1.85098 -0.237494
thorax -5.06301 0.97618 1.10071
lowerneck -12.4657 -4.44089 -11.4433
upperneck 40.8445 -4.51409 5.57805
head 17.6381 -2.56521 3.91413
rclavicle 2.045e-014 1.23246e-014
rhumerus -27.007 -9.29118 -79.7068
rradius 40.483
rwrist 3.90975
rhand -14.6193 8.94313
rfingers 7.12502
rthumb 11.532 -20.7196
lclavicle 2.045e-014 1.23246e-014
lhumerus -32.9927 4.4208 83.5742
lradius 30.3975
lwrist -6.32946
lhand -18.0488 22.2619
lfingers 7.12502
lthumb 8.22321 52.0819
rfemur -11.6414 -5.60611 16.2637
rtibia 60.0557
rfoot -0.774409 -0.809657
rtoes 2.08565
lfemur -7.68578 1.4344 -23.1045
ltibia 12.1253
lfoot 1.90941 -6.29672
ltoes -1.52471
209
root 5.68175 18.081 3.95482 -0.475973 43.6105 3.67808
lowerback 13.6098 1.68227 -3.2269
upperback 2.46907 1.79279 -0.319134
thorax -5.10874 0.951756 1.1657
lowerneck -12.3222 -4.42335 -11.104
upperneck 40.7763 -4.48001 5.25536
head 17.5288 -2.54103 3.70344
rclavicle -6.61208e-014 6.85807e-015
rhumerus -27.0493 -9.13271 -79.8762
rradius 40.2095
rwrist 3.91679
rhand -14.82 9.09218
rfingers 7.12502
rthumb 11.3384 -20.5813
lclavicle -6.61208e-014 6.85807e-015
lhumerus -32.7963 4.12964 83.4889
lradius 30.5512
lwrist -6.59064
lhand -17.6176 21.1431
lfingers 7.12502
lthumb 8.63941 50.9463
rfemur -12.5288 -6.07276 15.9612
rtibia 60.5523
rfoot -1.55104 -1.19102
rtoes 2.23889
lfemur -7.36256 1.50847 -23.4119
ltibia 12.2246
lfoot 1.46254 -6.21056
ltoes -1.57662
